<svg xmlns="http://www.w3.org/2000/svg" fill="none" viewBox="0 0 72 47"><path fill="#fff" d="M55.696 26.003a6.053 6.053 0 0 0-2.413.426c-.729.299-1.334.74-1.76 1.283a6.577 6.577 0 0 0-2.697-1.101 6.837 6.837 0 0 0-2.084-.035 5.806 5.806 0 0 0-1.88.59 4.339 4.339 0 0 0-1.39 1.124c-.357.449-.59.955-.689 1.489A3.35 3.35 0 0 0 43 31.656c-.625.306-1.128.69-1.474 1.129-.346.437-.526.916-.526 1.4 0 .429.14.853.413 1.249.272.395.671.755 1.175 1.058.503.303 1.1.543 1.758.707.679.167 1.375.25 2.074.248 1.42-.001 2.783-.338 3.795-.938a6.524 6.524 0 0 0 4.366.654c.758-.154 1.443-.446 2.001-.853.667.74 1.62 1.259 2.67 1.453.277.05.557.079.836.082.965.014 1.88-.255 2.59-.762.709-.507 1.17-1.22 1.305-2.02.14-.84-.091-1.718-.65-2.471-.557-.753-1.404-1.33-2.384-1.624.018-.065.034-.13.047-.197a3.07 3.07 0 0 0-.112-1.53 3.914 3.914 0 0 0-.865-1.427 5.346 5.346 0 0 0-1.485-1.103 6.514 6.514 0 0 0-1.88-.616 6.841 6.841 0 0 0-.959-.091l.001-.001ZM33.36.003a6.053 6.053 0 0 0-2.413.426c-.729.299-1.334.74-1.76 1.283A6.564 6.564 0 0 0 26.49.61a6.838 6.838 0 0 0-2.084-.035 5.782 5.782 0 0 0-1.88.59 4.339 4.339 0 0 0-1.39 1.124c-.357.449-.59.955-.689 1.489a3.351 3.351 0 0 0 .217 1.877c-.625.306-1.128.69-1.474 1.129-.346.437-.526.916-.526 1.4 0 .429.14.853.413 1.249.272.395.671.755 1.175 1.058.503.303 1.1.543 1.758.707.679.167 1.375.25 2.074.248 1.42-.001 2.783-.338 3.795-.938a6.524 6.524 0 0 0 4.366.654c.758-.154 1.443-.446 2.001-.853.667.74 1.62 1.259 2.67 1.453.277.05.557.079.836.082.965.014 1.88-.255 2.59-.762.709-.507 1.17-1.22 1.305-2.02.14-.84-.091-1.718-.65-2.471-.557-.753-1.404-1.33-2.384-1.624.018-.065.034-.131.047-.197a3.07 3.07 0 0 0-.112-1.53 3.905 3.905 0 0 0-.865-1.427A5.346 5.346 0 0 0 36.198.71a6.484 6.484 0 0 0-1.88-.616 6.841 6.841 0 0 0-.959-.091l.001-.001ZM63.818 4.85c-.936 0-1.843.22-2.563.624-.72.403-1.208.963-1.38 1.583a4.242 4.242 0 0 0-1.824-.406c-.921 0-1.805.285-2.456.792-.651.507-1.017 1.194-1.017 1.91 0 .136.015.27.041.404a4.238 4.238 0 0 0-.574-.041c-.897 0-1.758.284-2.392.79-.634.508-.99 1.196-.99 1.913 0 .538.201 1.064.578 1.51.377.446.912.792 1.536.993v.02c0 .355.086.707.251 1.035.166.328.408.625.714.877.306.25.669.45 1.068.585a3.92 3.92 0 0 0 2.575-.021c.415-.15.788-.367 1.096-.64.26.473.681.874 1.213 1.156.531.28 1.15.43 1.783.432.59 0 1.169-.13 1.677-.377s.925-.6 1.21-1.026a4.236 4.236 0 0 0 2.757 1.04c1.175 0 2.303-.502 3.134-1.397.83-.896 1.298-2.11 1.298-3.378 0-1.18-.407-2.318-1.14-3.194-.733-.877-1.742-1.43-2.831-1.553.163-.297.248-.61.25-.928 0-.716-.423-1.404-1.175-1.91-.752-.508-1.773-.792-2.837-.793h-.002ZM16.768 29.02c-1.83.002-3.594.309-4.965.866-1.37.557-2.253 1.324-2.48 2.159-.957-.308-2.054-.472-3.173-.473-1.63 0-3.195.344-4.348.957S0 33.974 0 34.84c0 .552.264 1.093.764 1.576.501.482 1.223.89 2.1 1.184-.412.432-.627.904-.63 1.38.002.667.416 1.317 1.187 1.863.771.547 1.862.964 3.128 1.197-.319.41-.484.853-.485 1.3 0 .867.615 1.699 1.71 2.31 1.093.614 2.576.958 4.122.958 1.292-.001 2.547-.242 3.568-.686 1.02-.444 1.749-1.066 2.071-1.767 1.351.74 2.99 1.142 4.676 1.144 2.081 0 4.077-.608 5.549-1.69 1.471-1.083 2.298-2.552 2.299-4.083-.002-1.347-.643-2.65-1.812-3.686-1.17-1.036-2.795-1.739-4.595-1.987.413-.434.626-.902.627-1.376 0-.453-.193-.903-.57-1.322-.378-.42-.931-.8-1.629-1.12-.697-.323-1.526-.576-2.437-.75a15.485 15.485 0 0 0-2.875-.264Z"/></svg>