<svg xmlns="http://www.w3.org/2000/svg" fill="none" viewBox="0 0 47 54"><path fill="#EFED81" d="m27.206 0-.32 1.934-1.934.318 1.934.32.32 1.934.319-1.934 1.933-.32-1.933-.318L27.206 0Zm9.5 9.5-.566 3.437-3.438.565 3.438.566.566 3.438.565-3.438 3.437-.566-3.437-.565-.565-3.437Zm-19.814 9.359-.338 2.048-2.047.336 2.047.338.338 2.047.338-2.047 2.047-.338-2.047-.336-.338-2.048Zm15.564 7.186-.312 1.896-1.897.311 1.897.312.312 1.897.311-1.897 1.896-.312-1.896-.311-.311-1.896ZM3.002 35.71l-.424 2.578L0 38.714l2.578.424.424 2.578.425-2.578 2.578-.424-2.578-.426-.425-2.578Zm15.742 6.373-.778 4.725-4.724.779 4.724.777.778 4.725.779-4.725 4.725-.777-4.725-.779-.779-4.725Zm25.367-2.944-.312 1.895-1.897.312 1.897.313.312 1.896.311-1.896 1.896-.313-1.896-.312-.311-1.895Z"/></svg>