<svg width="37" height="37" viewBox="0 0 37 37" fill="none" xmlns="http://www.w3.org/2000/svg">
<path d="M15.7067 0.00015129C15.5835 -0.00228608 15.4617 0.0247582 15.3511 0.0790317C15.2406 0.133305 15.1446 0.213233 15.0712 0.312144L12.5638 3.69048C14.4508 2.93175 16.4654 2.54063 18.4993 2.5382C18.8628 2.54428 19.2261 2.56278 19.5884 2.59366L16.1392 0.143661C16.0128 0.0533852 15.862 0.00339656 15.7067 0.00015129ZM24.8865 0.972496C24.7961 0.977987 24.7073 0.999357 24.6243 1.03562L20.7407 2.71616C23.1173 3.04946 25.3882 3.91438 27.3844 5.24656L25.6349 1.42226C25.5756 1.29281 25.4816 1.18229 25.3634 1.10291C25.2451 1.02353 25.1073 0.978374 24.965 0.972451C24.9389 0.971124 24.9126 0.971169 24.8865 0.972496ZM7.20056 3.78043C7.01173 3.78127 6.82975 3.85126 6.68903 3.97717C6.5483 4.10308 6.4586 4.27618 6.43685 4.46375L5.95259 8.66321C7.43163 6.77311 9.3178 5.24087 11.4708 4.18048L7.27712 3.78236C7.25169 3.78044 7.22606 3.77982 7.20056 3.78043ZM18.4993 4.22066C14.7124 4.22098 11.0806 5.72548 8.40283 8.40322C5.72509 11.081 4.22068 14.7127 4.22036 18.4996C4.22017 22.2868 5.72431 25.919 8.40211 28.5972C11.0799 31.2753 14.712 32.7801 18.4993 32.7804C20.3747 32.7805 22.2317 32.4112 23.9644 31.6935C25.6971 30.9759 27.2713 29.924 28.5974 28.5978C29.9235 27.2717 30.9755 25.6974 31.6932 23.9647C32.4108 22.232 32.7802 20.375 32.7801 18.4996C32.7798 14.7124 31.2751 11.0804 28.5969 8.40257C25.9188 5.72476 22.2865 4.22049 18.4993 4.22066ZM28.3376 5.95289C30.2279 7.43245 31.7601 9.31933 32.8203 11.4731L33.2184 7.27742C33.2375 7.07603 33.1769 6.87518 33.0495 6.71805C32.9221 6.56093 32.738 6.46006 32.537 6.43715L28.3376 5.95289ZM5.2463 9.61641L1.422 11.3659C1.23849 11.4501 1.09518 11.6028 1.02292 11.7914C0.950654 11.9799 0.955148 12.1893 1.03536 12.3746L2.71591 16.2563C3.04976 13.881 3.91467 11.6115 5.2463 9.61641ZM33.3103 12.5641C34.0692 14.4517 34.4604 16.467 34.4626 18.5015C34.4569 18.8638 34.4388 19.2257 34.4085 19.5868L36.8566 16.1395C36.9739 15.9749 37.0221 15.7708 36.9906 15.5711C36.9591 15.3714 36.8504 15.192 36.6882 15.0715L33.3103 12.5641ZM2.59149 17.4162C2.59149 17.4175 2.59149 17.4188 2.59149 17.4202V17.4162ZM2.59149 17.4202L0.143405 20.8616C0.0261093 21.0263 -0.0220761 21.2304 0.00942093 21.4301C0.040918 21.6298 0.149562 21.8091 0.311843 21.9297L3.69017 24.4371C2.93144 22.5501 2.54034 20.5354 2.5379 18.5016C2.54363 18.1406 2.5613 17.7799 2.59149 17.4202ZM34.2846 20.743C33.951 23.1189 33.0861 25.3891 31.7542 27.3848L35.5785 25.6353C35.762 25.5511 35.9053 25.3983 35.9776 25.2098C36.0498 25.0213 36.0453 24.8119 35.9651 24.6266L34.2846 20.743ZM4.18017 25.53L3.78204 29.7237C3.76294 29.9251 3.82354 30.126 3.95096 30.2831C4.07838 30.4403 4.26245 30.5411 4.46345 30.564L8.66291 31.0483C6.77282 29.5693 5.24056 27.6831 4.18017 25.53ZM31.0479 28.338C29.5689 30.2281 27.6827 31.7603 25.5296 32.8207L29.7234 33.2188C29.9247 33.2379 30.1256 33.1773 30.2827 33.0498C30.4399 32.9224 30.5407 32.7384 30.5636 32.5374L31.0479 28.338ZM9.61611 31.7546L11.3656 35.5789C11.4498 35.7624 11.6024 35.9056 11.791 35.9779C11.9795 36.0502 12.189 36.0457 12.3743 35.9655L16.2579 34.285C13.8819 33.9514 11.6118 33.0865 9.61611 31.7546ZM24.4348 33.3107C22.5478 34.0694 20.5331 34.4605 18.4993 34.463C18.1383 34.4567 17.7776 34.4382 17.4178 34.4075L20.8612 36.8575C21.0259 36.9748 21.23 37.0229 21.4297 36.9914C21.6294 36.9599 21.8087 36.8514 21.9293 36.6891L24.4348 33.3107Z" fill="#FF8516"/>
</svg>
